<svg width="56" height="112" viewBox="0 0 56 112" fill="none" xmlns="http://www.w3.org/2000/svg">
<path fill-rule="evenodd" clip-rule="evenodd" d="M-54.4444 3.11111C-53.5854 3.11111 -52.8889 2.41461 -52.8889 1.55556C-52.8889 0.6965 -53.5854 0 -54.4444 0C-55.3035 0 -56 0.6965 -56 1.55556C-56 2.41461 -55.3035 3.11111 -54.4444 3.11111ZM-38.8889 3.11111C-38.0298 3.11111 -37.3333 2.41461 -37.3333 1.55556C-37.3333 0.6965 -38.0298 0 -38.8889 0C-39.7479 0 -40.4444 0.6965 -40.4444 1.55556C-40.4444 2.41461 -39.7479 3.11111 -38.8889 3.11111ZM-21.7778 1.55556C-21.7778 2.41461 -22.4743 3.11111 -23.3333 3.11111C-24.1924 3.11111 -24.8889 2.41461 -24.8889 1.55556C-24.8889 0.6965 -24.1924 0 -23.3333 0C-22.4743 0 -21.7778 0.6965 -21.7778 1.55556ZM-7.77778 3.11111C-6.91872 3.11111 -6.22223 2.41461 -6.22223 1.55556C-6.22223 0.6965 -6.91872 0 -7.77778 0C-8.63684 0 -9.33334 0.6965 -9.33334 1.55556C-9.33334 2.41461 -8.63684 3.11111 -7.77778 3.11111ZM9.33334 1.55556C9.33334 2.41461 8.63683 3.11111 7.77778 3.11111C6.91872 3.11111 6.22223 2.41461 6.22223 1.55556C6.22223 0.6965 6.91872 0 7.77778 0C8.63683 0 9.33334 0.6965 9.33334 1.55556ZM23.3333 3.11111C24.1924 3.11111 24.8889 2.41461 24.8889 1.55556C24.8889 0.6965 24.1924 0 23.3333 0C22.4743 0 21.7778 0.6965 21.7778 1.55556C21.7778 2.41461 22.4743 3.11111 23.3333 3.11111ZM40.4444 1.55556C40.4444 2.41461 39.7479 3.11111 38.8889 3.11111C38.0298 3.11111 37.3333 2.41461 37.3333 1.55556C37.3333 0.6965 38.0298 0 38.8889 0C39.7479 0 40.4444 0.6965 40.4444 1.55556ZM54.4444 3.11111C55.3035 3.11111 56 2.41461 56 1.55556C56 0.6965 55.3035 0 54.4444 0C53.5854 0 52.8889 0.6965 52.8889 1.55556C52.8889 2.41461 53.5854 3.11111 54.4444 3.11111ZM-52.8889 17.1111C-52.8889 17.9702 -53.5854 18.6667 -54.4444 18.6667C-55.3035 18.6667 -56 17.9702 -56 17.1111C-56 16.2521 -55.3035 15.5556 -54.4444 15.5556C-53.5854 15.5556 -52.8889 16.2521 -52.8889 17.1111ZM-38.8889 18.6667C-38.0298 18.6667 -37.3333 17.9702 -37.3333 17.1111C-37.3333 16.2521 -38.0298 15.5556 -38.8889 15.5556C-39.7479 15.5556 -40.4444 16.2521 -40.4444 17.1111C-40.4444 17.9702 -39.7479 18.6667 -38.8889 18.6667ZM-21.7778 17.1111C-21.7778 17.9702 -22.4743 18.6667 -23.3333 18.6667C-24.1924 18.6667 -24.8889 17.9702 -24.8889 17.1111C-24.8889 16.2521 -24.1924 15.5556 -23.3333 15.5556C-22.4743 15.5556 -21.7778 16.2521 -21.7778 17.1111ZM-7.77778 18.6667C-6.91872 18.6667 -6.22223 17.9702 -6.22223 17.1111C-6.22223 16.2521 -6.91872 15.5556 -7.77778 15.5556C-8.63684 15.5556 -9.33334 16.2521 -9.33334 17.1111C-9.33334 17.9702 -8.63684 18.6667 -7.77778 18.6667ZM9.33334 17.1111C9.33334 17.9702 8.63683 18.6667 7.77778 18.6667C6.91872 18.6667 6.22223 17.9702 6.22223 17.1111C6.22223 16.2521 6.91872 15.5556 7.77778 15.5556C8.63683 15.5556 9.33334 16.2521 9.33334 17.1111ZM23.3333 18.6667C24.1924 18.6667 24.8889 17.9702 24.8889 17.1111C24.8889 16.2521 24.1924 15.5556 23.3333 15.5556C22.4743 15.5556 21.7778 16.2521 21.7778 17.1111C21.7778 17.9702 22.4743 18.6667 23.3333 18.6667ZM40.4444 17.1111C40.4444 17.9702 39.7479 18.6667 38.8889 18.6667C38.0298 18.6667 37.3333 17.9702 37.3333 17.1111C37.3333 16.2521 38.0298 15.5556 38.8889 15.5556C39.7479 15.5556 40.4444 16.2521 40.4444 17.1111ZM54.4444 18.6667C55.3035 18.6667 56 17.9702 56 17.1111C56 16.2521 55.3035 15.5556 54.4444 15.5556C53.5854 15.5556 52.8889 16.2521 52.8889 17.1111C52.8889 17.9702 53.5854 18.6667 54.4444 18.6667ZM-52.8889 32.6667C-52.8889 33.5257 -53.5854 34.2222 -54.4444 34.2222C-55.3035 34.2222 -56 33.5257 -56 32.6667C-56 31.8076 -55.3035 31.1111 -54.4444 31.1111C-53.5854 31.1111 -52.8889 31.8076 -52.8889 32.6667ZM-38.8889 34.2222C-38.0298 34.2222 -37.3333 33.5257 -37.3333 32.6667C-37.3333 31.8076 -38.0298 31.1111 -38.8889 31.1111C-39.7479 31.1111 -40.4444 31.8076 -40.4444 32.6667C-40.4444 33.5257 -39.7479 34.2222 -38.8889 34.2222ZM-21.7778 32.6667C-21.7778 33.5257 -22.4743 34.2222 -23.3333 34.2222C-24.1924 34.2222 -24.8889 33.5257 -24.8889 32.6667C-24.8889 31.8076 -24.1924 31.1111 -23.3333 31.1111C-22.4743 31.1111 -21.7778 31.8076 -21.7778 32.6667ZM-7.77778 34.2222C-6.91872 34.2222 -6.22223 33.5257 -6.22223 32.6667C-6.22223 31.8076 -6.91872 31.1111 -7.77778 31.1111C-8.63684 31.1111 -9.33334 31.8076 -9.33334 32.6667C-9.33334 33.5257 -8.63684 34.2222 -7.77778 34.2222ZM9.33334 32.6667C9.33334 33.5257 8.63683 34.2222 7.77778 34.2222C6.91872 34.2222 6.22223 33.5257 6.22223 32.6667C6.22223 31.8076 6.91872 31.1111 7.77778 31.1111C8.63683 31.1111 9.33334 31.8076 9.33334 32.6667ZM23.3333 34.2222C24.1924 34.2222 24.8889 33.5257 24.8889 32.6667C24.8889 31.8076 24.1924 31.1111 23.3333 31.1111C22.4743 31.1111 21.7778 31.8076 21.7778 32.6667C21.7778 33.5257 22.4743 34.2222 23.3333 34.2222ZM40.4444 32.6667C40.4444 33.5257 39.7479 34.2222 38.8889 34.2222C38.0298 34.2222 37.3333 33.5257 37.3333 32.6667C37.3333 31.8076 38.0298 31.1111 38.8889 31.1111C39.7479 31.1111 40.4444 31.8076 40.4444 32.6667ZM54.4444 34.2222C55.3035 34.2222 56 33.5257 56 32.6667C56 31.8076 55.3035 31.1111 54.4444 31.1111C53.5854 31.1111 52.8889 31.8076 52.8889 32.6667C52.8889 33.5257 53.5854 34.2222 54.4444 34.2222ZM-52.8889 48.2222C-52.8889 49.0813 -53.5854 49.7778 -54.4444 49.7778C-55.3035 49.7778 -56 49.0813 -56 48.2222C-56 47.3632 -55.3035 46.6667 -54.4444 46.6667C-53.5854 46.6667 -52.8889 47.3632 -52.8889 48.2222ZM-38.8889 49.7778C-38.0298 49.7778 -37.3333 49.0813 -37.3333 48.2222C-37.3333 47.3632 -38.0298 46.6667 -38.8889 46.6667C-39.7479 46.6667 -40.4444 47.3632 -40.4444 48.2222C-40.4444 49.0813 -39.7479 49.7778 -38.8889 49.7778ZM-21.7778 48.2222C-21.7778 49.0813 -22.4743 49.7778 -23.3333 49.7778C-24.1924 49.7778 -24.8889 49.0813 -24.8889 48.2222C-24.8889 47.3632 -24.1924 46.6667 -23.3333 46.6667C-22.4743 46.6667 -21.7778 47.3632 -21.7778 48.2222ZM-7.77778 49.7778C-6.91872 49.7778 -6.22223 49.0813 -6.22223 48.2222C-6.22223 47.3632 -6.91872 46.6667 -7.77778 46.6667C-8.63684 46.6667 -9.33334 47.3632 -9.33334 48.2222C-9.33334 49.0813 -8.63684 49.7778 -7.77778 49.7778ZM9.33334 48.2222C9.33334 49.0813 8.63683 49.7778 7.77778 49.7778C6.91872 49.7778 6.22223 49.0813 6.22223 48.2222C6.22223 47.3632 6.91872 46.6667 7.77778 46.6667C8.63683 46.6667 9.33334 47.3632 9.33334 48.2222ZM23.3333 49.7778C24.1924 49.7778 24.8889 49.0813 24.8889 48.2222C24.8889 47.3632 24.1924 46.6667 23.3333 46.6667C22.4743 46.6667 21.7778 47.3632 21.7778 48.2222C21.7778 49.0813 22.4743 49.7778 23.3333 49.7778ZM40.4444 48.2222C40.4444 49.0813 39.7479 49.7778 38.8889 49.7778C38.0298 49.7778 37.3333 49.0813 37.3333 48.2222C37.3333 47.3632 38.0298 46.6667 38.8889 46.6667C39.7479 46.6667 40.4444 47.3632 40.4444 48.2222ZM54.4444 49.7778C55.3035 49.7778 56 49.0813 56 48.2222C56 47.3632 55.3035 46.6667 54.4444 46.6667C53.5854 46.6667 52.8889 47.3632 52.8889 48.2222C52.8889 49.0813 53.5854 49.7778 54.4444 49.7778ZM-52.8889 63.7778C-52.8889 64.6368 -53.5854 65.3333 -54.4444 65.3333C-55.3035 65.3333 -56 64.6368 -56 63.7778C-56 62.9187 -55.3035 62.2222 -54.4444 62.2222C-53.5854 62.2222 -52.8889 62.9187 -52.8889 63.7778ZM-38.8889 65.3333C-38.0298 65.3333 -37.3333 64.6368 -37.3333 63.7778C-37.3333 62.9187 -38.0298 62.2222 -38.8889 62.2222C-39.7479 62.2222 -40.4444 62.9187 -40.4444 63.7778C-40.4444 64.6368 -39.7479 65.3333 -38.8889 65.3333ZM-21.7778 63.7778C-21.7778 64.6368 -22.4743 65.3333 -23.3333 65.3333C-24.1924 65.3333 -24.8889 64.6368 -24.8889 63.7778C-24.8889 62.9187 -24.1924 62.2222 -23.3333 62.2222C-22.4743 62.2222 -21.7778 62.9187 -21.7778 63.7778ZM-7.77778 65.3333C-6.91872 65.3333 -6.22223 64.6368 -6.22223 63.7778C-6.22223 62.9187 -6.91872 62.2222 -7.77778 62.2222C-8.63684 62.2222 -9.33334 62.9187 -9.33334 63.7778C-9.33334 64.6368 -8.63684 65.3333 -7.77778 65.3333ZM9.33334 63.7778C9.33334 64.6368 8.63683 65.3333 7.77778 65.3333C6.91872 65.3333 6.22223 64.6368 6.22223 63.7778C6.22223 62.9187 6.91872 62.2222 7.77778 62.2222C8.63683 62.2222 9.33334 62.9187 9.33334 63.7778ZM23.3333 65.3333C24.1924 65.3333 24.8889 64.6368 24.8889 63.7778C24.8889 62.9187 24.1924 62.2222 23.3333 62.2222C22.4743 62.2222 21.7778 62.9187 21.7778 63.7778C21.7778 64.6368 22.4743 65.3333 23.3333 65.3333ZM40.4444 63.7778C40.4444 64.6368 39.7479 65.3333 38.8889 65.3333C38.0298 65.3333 37.3333 64.6368 37.3333 63.7778C37.3333 62.9187 38.0298 62.2222 38.8889 62.2222C39.7479 62.2222 40.4444 62.9187 40.4444 63.7778ZM54.4444 65.3333C55.3035 65.3333 56 64.6368 56 63.7778C56 62.9187 55.3035 62.2222 54.4444 62.2222C53.5854 62.2222 52.8889 62.9187 52.8889 63.7778C52.8889 64.6368 53.5854 65.3333 54.4444 65.3333ZM-52.8889 79.3333C-52.8889 80.1924 -53.5854 80.8889 -54.4444 80.8889C-55.3035 80.8889 -56 80.1924 -56 79.3333C-56 78.4743 -55.3035 77.7778 -54.4444 77.7778C-53.5854 77.7778 -52.8889 78.4743 -52.8889 79.3333ZM-38.8889 80.8889C-38.0298 80.8889 -37.3333 80.1924 -37.3333 79.3333C-37.3333 78.4743 -38.0298 77.7778 -38.8889 77.7778C-39.7479 77.7778 -40.4444 78.4743 -40.4444 79.3333C-40.4444 80.1924 -39.7479 80.8889 -38.8889 80.8889ZM-21.7778 79.3333C-21.7778 80.1924 -22.4743 80.8889 -23.3333 80.8889C-24.1924 80.8889 -24.8889 80.1924 -24.8889 79.3333C-24.8889 78.4743 -24.1924 77.7778 -23.3333 77.7778C-22.4743 77.7778 -21.7778 78.4743 -21.7778 79.3333ZM-7.77778 80.8889C-6.91872 80.8889 -6.22223 80.1924 -6.22223 79.3333C-6.22223 78.4743 -6.91872 77.7778 -7.77778 77.7778C-8.63684 77.7778 -9.33334 78.4743 -9.33334 79.3333C-9.33334 80.1924 -8.63684 80.8889 -7.77778 80.8889ZM9.33334 79.3333C9.33334 80.1924 8.63683 80.8889 7.77778 80.8889C6.91872 80.8889 6.22223 80.1924 6.22223 79.3333C6.22223 78.4743 6.91872 77.7778 7.77778 77.7778C8.63683 77.7778 9.33334 78.4743 9.33334 79.3333ZM23.3333 80.8889C24.1924 80.8889 24.8889 80.1924 24.8889 79.3333C24.8889 78.4743 24.1924 77.7778 23.3333 77.7778C22.4743 77.7778 21.7778 78.4743 21.7778 79.3333C21.7778 80.1924 22.4743 80.8889 23.3333 80.8889ZM40.4444 79.3333C40.4444 80.1924 39.7479 80.8889 38.8889 80.8889C38.0298 80.8889 37.3333 80.1924 37.3333 79.3333C37.3333 78.4743 38.0298 77.7778 38.8889 77.7778C39.7479 77.7778 40.4444 78.4743 40.4444 79.3333ZM54.4444 80.8889C55.3035 80.8889 56 80.1924 56 79.3333C56 78.4743 55.3035 77.7778 54.4444 77.7778C53.5854 77.7778 52.8889 78.4743 52.8889 79.3333C52.8889 80.1924 53.5854 80.8889 54.4444 80.8889ZM-52.8889 94.8889C-52.8889 95.7479 -53.5854 96.4444 -54.4444 96.4444C-55.3035 96.4444 -56 95.7479 -56 94.8889C-56 94.0298 -55.3035 93.3333 -54.4444 93.3333C-53.5854 93.3333 -52.8889 94.0298 -52.8889 94.8889ZM-38.8889 96.4444C-38.0298 96.4444 -37.3333 95.7479 -37.3333 94.8889C-37.3333 94.0298 -38.0298 93.3333 -38.8889 93.3333C-39.7479 93.3333 -40.4444 94.0298 -40.4444 94.8889C-40.4444 95.7479 -39.7479 96.4444 -38.8889 96.4444ZM-21.7778 94.8889C-21.7778 95.7479 -22.4743 96.4444 -23.3333 96.4444C-24.1924 96.4444 -24.8889 95.7479 -24.8889 94.8889C-24.8889 94.0298 -24.1924 93.3333 -23.3333 93.3333C-22.4743 93.3333 -21.7778 94.0298 -21.7778 94.8889ZM-7.77778 96.4444C-6.91872 96.4444 -6.22223 95.7479 -6.22223 94.8889C-6.22223 94.0298 -6.91872 93.3333 -7.77778 93.3333C-8.63684 93.3333 -9.33334 94.0298 -9.33334 94.8889C-9.33334 95.7479 -8.63684 96.4444 -7.77778 96.4444ZM9.33334 94.8889C9.33334 95.7479 8.63683 96.4444 7.77778 96.4444C6.91872 96.4444 6.22223 95.7479 6.22223 94.8889C6.22223 94.0298 6.91872 93.3333 7.77778 93.3333C8.63683 93.3333 9.33334 94.0298 9.33334 94.8889ZM23.3333 96.4444C24.1924 96.4444 24.8889 95.7479 24.8889 94.8889C24.8889 94.0298 24.1924 93.3333 23.3333 93.3333C22.4743 93.3333 21.7778 94.0298 21.7778 94.8889C21.7778 95.7479 22.4743 96.4444 23.3333 96.4444ZM40.4444 94.8889C40.4444 95.7479 39.7479 96.4444 38.8889 96.4444C38.0298 96.4444 37.3333 95.7479 37.3333 94.8889C37.3333 94.0298 38.0298 93.3333 38.8889 93.3333C39.7479 93.3333 40.4444 94.0298 40.4444 94.8889ZM54.4444 96.4444C55.3035 96.4444 56 95.7479 56 94.8889C56 94.0298 55.3035 93.3333 54.4444 93.3333C53.5854 93.3333 52.8889 94.0298 52.8889 94.8889C52.8889 95.7479 53.5854 96.4444 54.4444 96.4444ZM-52.8889 110.444C-52.8889 111.303 -53.5854 112 -54.4444 112C-55.3035 112 -56 111.303 -56 110.444C-56 109.585 -55.3035 108.889 -54.4444 108.889C-53.5854 108.889 -52.8889 109.585 -52.8889 110.444ZM-38.8889 112C-38.0298 112 -37.3333 111.303 -37.3333 110.444C-37.3333 109.585 -38.0298 108.889 -38.8889 108.889C-39.7479 108.889 -40.4444 109.585 -40.4444 110.444C-40.4444 111.303 -39.7479 112 -38.8889 112ZM-21.7778 110.444C-21.7778 111.303 -22.4743 112 -23.3333 112C-24.1924 112 -24.8889 111.303 -24.8889 110.444C-24.8889 109.585 -24.1924 108.889 -23.3333 108.889C-22.4743 108.889 -21.7778 109.585 -21.7778 110.444ZM-7.77778 112C-6.91872 112 -6.22223 111.303 -6.22223 110.444C-6.22223 109.585 -6.91872 108.889 -7.77778 108.889C-8.63684 108.889 -9.33334 109.585 -9.33334 110.444C-9.33334 111.303 -8.63684 112 -7.77778 112ZM9.33334 110.444C9.33334 111.303 8.63683 112 7.77778 112C6.91872 112 6.22223 111.303 6.22223 110.444C6.22223 109.585 6.91872 108.889 7.77778 108.889C8.63683 108.889 9.33334 109.585 9.33334 110.444ZM23.3333 112C24.1924 112 24.8889 111.303 24.8889 110.444C24.8889 109.585 24.1924 108.889 23.3333 108.889C22.4743 108.889 21.7778 109.585 21.7778 110.444C21.7778 111.303 22.4743 112 23.3333 112ZM40.4444 110.444C40.4444 111.303 39.7479 112 38.8889 112C38.0298 112 37.3333 111.303 37.3333 110.444C37.3333 109.585 38.0298 108.889 38.8889 108.889C39.7479 108.889 40.4444 109.585 40.4444 110.444ZM54.4444 112C55.3035 112 56 111.303 56 110.444C56 109.585 55.3035 108.889 54.4444 108.889C53.5854 108.889 52.8889 109.585 52.8889 110.444C52.8889 111.303 53.5854 112 54.4444 112Z" fill="#F55529"/>
</svg>
