<svg width="112" height="112" viewBox="0 0 112 112" fill="none" xmlns="http://www.w3.org/2000/svg">
<path fill-rule="evenodd" clip-rule="evenodd" d="M1.55556 3.11111C2.41461 3.11111 3.11111 2.41461 3.11111 1.55556C3.11111 0.6965 2.41461 0 1.55556 0C0.6965 0 0 0.6965 0 1.55556C0 2.41461 0.6965 3.11111 1.55556 3.11111ZM17.1111 3.11111C17.9702 3.11111 18.6667 2.41461 18.6667 1.55556C18.6667 0.6965 17.9702 0 17.1111 0C16.2521 0 15.5556 0.6965 15.5556 1.55556C15.5556 2.41461 16.2521 3.11111 17.1111 3.11111ZM34.2222 1.55556C34.2222 2.41461 33.5257 3.11111 32.6667 3.11111C31.8076 3.11111 31.1111 2.41461 31.1111 1.55556C31.1111 0.6965 31.8076 0 32.6667 0C33.5257 0 34.2222 0.6965 34.2222 1.55556ZM48.2222 3.11111C49.0813 3.11111 49.7778 2.41461 49.7778 1.55556C49.7778 0.6965 49.0813 0 48.2222 0C47.3632 0 46.6667 0.6965 46.6667 1.55556C46.6667 2.41461 47.3632 3.11111 48.2222 3.11111ZM65.3333 1.55556C65.3333 2.41461 64.6368 3.11111 63.7778 3.11111C62.9187 3.11111 62.2222 2.41461 62.2222 1.55556C62.2222 0.6965 62.9187 0 63.7778 0C64.6368 0 65.3333 0.6965 65.3333 1.55556ZM79.3333 3.11111C80.1924 3.11111 80.8889 2.41461 80.8889 1.55556C80.8889 0.6965 80.1924 0 79.3333 0C78.4743 0 77.7778 0.6965 77.7778 1.55556C77.7778 2.41461 78.4743 3.11111 79.3333 3.11111ZM96.4444 1.55556C96.4444 2.41461 95.7479 3.11111 94.8889 3.11111C94.0298 3.11111 93.3333 2.41461 93.3333 1.55556C93.3333 0.6965 94.0298 0 94.8889 0C95.7479 0 96.4444 0.6965 96.4444 1.55556ZM110.444 3.11111C111.303 3.11111 112 2.41461 112 1.55556C112 0.6965 111.303 0 110.444 0C109.585 0 108.889 0.6965 108.889 1.55556C108.889 2.41461 109.585 3.11111 110.444 3.11111ZM3.11111 17.1111C3.11111 17.9702 2.41461 18.6667 1.55556 18.6667C0.6965 18.6667 0 17.9702 0 17.1111C0 16.2521 0.6965 15.5556 1.55556 15.5556C2.41461 15.5556 3.11111 16.2521 3.11111 17.1111ZM17.1111 18.6667C17.9702 18.6667 18.6667 17.9702 18.6667 17.1111C18.6667 16.2521 17.9702 15.5556 17.1111 15.5556C16.2521 15.5556 15.5556 16.2521 15.5556 17.1111C15.5556 17.9702 16.2521 18.6667 17.1111 18.6667ZM34.2222 17.1111C34.2222 17.9702 33.5257 18.6667 32.6667 18.6667C31.8076 18.6667 31.1111 17.9702 31.1111 17.1111C31.1111 16.2521 31.8076 15.5556 32.6667 15.5556C33.5257 15.5556 34.2222 16.2521 34.2222 17.1111ZM48.2222 18.6667C49.0813 18.6667 49.7778 17.9702 49.7778 17.1111C49.7778 16.2521 49.0813 15.5556 48.2222 15.5556C47.3632 15.5556 46.6667 16.2521 46.6667 17.1111C46.6667 17.9702 47.3632 18.6667 48.2222 18.6667ZM65.3333 17.1111C65.3333 17.9702 64.6368 18.6667 63.7778 18.6667C62.9187 18.6667 62.2222 17.9702 62.2222 17.1111C62.2222 16.2521 62.9187 15.5556 63.7778 15.5556C64.6368 15.5556 65.3333 16.2521 65.3333 17.1111ZM79.3333 18.6667C80.1924 18.6667 80.8889 17.9702 80.8889 17.1111C80.8889 16.2521 80.1924 15.5556 79.3333 15.5556C78.4743 15.5556 77.7778 16.2521 77.7778 17.1111C77.7778 17.9702 78.4743 18.6667 79.3333 18.6667ZM96.4444 17.1111C96.4444 17.9702 95.7479 18.6667 94.8889 18.6667C94.0298 18.6667 93.3333 17.9702 93.3333 17.1111C93.3333 16.2521 94.0298 15.5556 94.8889 15.5556C95.7479 15.5556 96.4444 16.2521 96.4444 17.1111ZM110.444 18.6667C111.303 18.6667 112 17.9702 112 17.1111C112 16.2521 111.303 15.5556 110.444 15.5556C109.585 15.5556 108.889 16.2521 108.889 17.1111C108.889 17.9702 109.585 18.6667 110.444 18.6667ZM3.11111 32.6667C3.11111 33.5257 2.41461 34.2222 1.55556 34.2222C0.6965 34.2222 0 33.5257 0 32.6667C0 31.8076 0.6965 31.1111 1.55556 31.1111C2.41461 31.1111 3.11111 31.8076 3.11111 32.6667ZM17.1111 34.2222C17.9702 34.2222 18.6667 33.5257 18.6667 32.6667C18.6667 31.8076 17.9702 31.1111 17.1111 31.1111C16.2521 31.1111 15.5556 31.8076 15.5556 32.6667C15.5556 33.5257 16.2521 34.2222 17.1111 34.2222ZM34.2222 32.6667C34.2222 33.5257 33.5257 34.2222 32.6667 34.2222C31.8076 34.2222 31.1111 33.5257 31.1111 32.6667C31.1111 31.8076 31.8076 31.1111 32.6667 31.1111C33.5257 31.1111 34.2222 31.8076 34.2222 32.6667ZM48.2222 34.2222C49.0813 34.2222 49.7778 33.5257 49.7778 32.6667C49.7778 31.8076 49.0813 31.1111 48.2222 31.1111C47.3632 31.1111 46.6667 31.8076 46.6667 32.6667C46.6667 33.5257 47.3632 34.2222 48.2222 34.2222ZM65.3333 32.6667C65.3333 33.5257 64.6368 34.2222 63.7778 34.2222C62.9187 34.2222 62.2222 33.5257 62.2222 32.6667C62.2222 31.8076 62.9187 31.1111 63.7778 31.1111C64.6368 31.1111 65.3333 31.8076 65.3333 32.6667ZM79.3333 34.2222C80.1924 34.2222 80.8889 33.5257 80.8889 32.6667C80.8889 31.8076 80.1924 31.1111 79.3333 31.1111C78.4743 31.1111 77.7778 31.8076 77.7778 32.6667C77.7778 33.5257 78.4743 34.2222 79.3333 34.2222ZM96.4444 32.6667C96.4444 33.5257 95.7479 34.2222 94.8889 34.2222C94.0298 34.2222 93.3333 33.5257 93.3333 32.6667C93.3333 31.8076 94.0298 31.1111 94.8889 31.1111C95.7479 31.1111 96.4444 31.8076 96.4444 32.6667ZM110.444 34.2222C111.303 34.2222 112 33.5257 112 32.6667C112 31.8076 111.303 31.1111 110.444 31.1111C109.585 31.1111 108.889 31.8076 108.889 32.6667C108.889 33.5257 109.585 34.2222 110.444 34.2222ZM3.11111 48.2222C3.11111 49.0813 2.41461 49.7778 1.55556 49.7778C0.6965 49.7778 0 49.0813 0 48.2222C0 47.3632 0.6965 46.6667 1.55556 46.6667C2.41461 46.6667 3.11111 47.3632 3.11111 48.2222ZM17.1111 49.7778C17.9702 49.7778 18.6667 49.0813 18.6667 48.2222C18.6667 47.3632 17.9702 46.6667 17.1111 46.6667C16.2521 46.6667 15.5556 47.3632 15.5556 48.2222C15.5556 49.0813 16.2521 49.7778 17.1111 49.7778ZM34.2222 48.2222C34.2222 49.0813 33.5257 49.7778 32.6667 49.7778C31.8076 49.7778 31.1111 49.0813 31.1111 48.2222C31.1111 47.3632 31.8076 46.6667 32.6667 46.6667C33.5257 46.6667 34.2222 47.3632 34.2222 48.2222ZM48.2222 49.7778C49.0813 49.7778 49.7778 49.0813 49.7778 48.2222C49.7778 47.3632 49.0813 46.6667 48.2222 46.6667C47.3632 46.6667 46.6667 47.3632 46.6667 48.2222C46.6667 49.0813 47.3632 49.7778 48.2222 49.7778ZM65.3333 48.2222C65.3333 49.0813 64.6368 49.7778 63.7778 49.7778C62.9187 49.7778 62.2222 49.0813 62.2222 48.2222C62.2222 47.3632 62.9187 46.6667 63.7778 46.6667C64.6368 46.6667 65.3333 47.3632 65.3333 48.2222ZM79.3333 49.7778C80.1924 49.7778 80.8889 49.0813 80.8889 48.2222C80.8889 47.3632 80.1924 46.6667 79.3333 46.6667C78.4743 46.6667 77.7778 47.3632 77.7778 48.2222C77.7778 49.0813 78.4743 49.7778 79.3333 49.7778ZM96.4444 48.2222C96.4444 49.0813 95.7479 49.7778 94.8889 49.7778C94.0298 49.7778 93.3333 49.0813 93.3333 48.2222C93.3333 47.3632 94.0298 46.6667 94.8889 46.6667C95.7479 46.6667 96.4444 47.3632 96.4444 48.2222ZM110.444 49.7778C111.303 49.7778 112 49.0813 112 48.2222C112 47.3632 111.303 46.6667 110.444 46.6667C109.585 46.6667 108.889 47.3632 108.889 48.2222C108.889 49.0813 109.585 49.7778 110.444 49.7778ZM3.11111 63.7778C3.11111 64.6368 2.41461 65.3333 1.55556 65.3333C0.6965 65.3333 0 64.6368 0 63.7778C0 62.9187 0.6965 62.2222 1.55556 62.2222C2.41461 62.2222 3.11111 62.9187 3.11111 63.7778ZM17.1111 65.3333C17.9702 65.3333 18.6667 64.6368 18.6667 63.7778C18.6667 62.9187 17.9702 62.2222 17.1111 62.2222C16.2521 62.2222 15.5556 62.9187 15.5556 63.7778C15.5556 64.6368 16.2521 65.3333 17.1111 65.3333ZM34.2222 63.7778C34.2222 64.6368 33.5257 65.3333 32.6667 65.3333C31.8076 65.3333 31.1111 64.6368 31.1111 63.7778C31.1111 62.9187 31.8076 62.2222 32.6667 62.2222C33.5257 62.2222 34.2222 62.9187 34.2222 63.7778ZM48.2222 65.3333C49.0813 65.3333 49.7778 64.6368 49.7778 63.7778C49.7778 62.9187 49.0813 62.2222 48.2222 62.2222C47.3632 62.2222 46.6667 62.9187 46.6667 63.7778C46.6667 64.6368 47.3632 65.3333 48.2222 65.3333ZM65.3333 63.7778C65.3333 64.6368 64.6368 65.3333 63.7778 65.3333C62.9187 65.3333 62.2222 64.6368 62.2222 63.7778C62.2222 62.9187 62.9187 62.2222 63.7778 62.2222C64.6368 62.2222 65.3333 62.9187 65.3333 63.7778ZM79.3333 65.3333C80.1924 65.3333 80.8889 64.6368 80.8889 63.7778C80.8889 62.9187 80.1924 62.2222 79.3333 62.2222C78.4743 62.2222 77.7778 62.9187 77.7778 63.7778C77.7778 64.6368 78.4743 65.3333 79.3333 65.3333ZM96.4444 63.7778C96.4444 64.6368 95.7479 65.3333 94.8889 65.3333C94.0298 65.3333 93.3333 64.6368 93.3333 63.7778C93.3333 62.9187 94.0298 62.2222 94.8889 62.2222C95.7479 62.2222 96.4444 62.9187 96.4444 63.7778ZM110.444 65.3333C111.303 65.3333 112 64.6368 112 63.7778C112 62.9187 111.303 62.2222 110.444 62.2222C109.585 62.2222 108.889 62.9187 108.889 63.7778C108.889 64.6368 109.585 65.3333 110.444 65.3333ZM3.11111 79.3333C3.11111 80.1924 2.41461 80.8889 1.55556 80.8889C0.6965 80.8889 0 80.1924 0 79.3333C0 78.4743 0.6965 77.7778 1.55556 77.7778C2.41461 77.7778 3.11111 78.4743 3.11111 79.3333ZM17.1111 80.8889C17.9702 80.8889 18.6667 80.1924 18.6667 79.3333C18.6667 78.4743 17.9702 77.7778 17.1111 77.7778C16.2521 77.7778 15.5556 78.4743 15.5556 79.3333C15.5556 80.1924 16.2521 80.8889 17.1111 80.8889ZM34.2222 79.3333C34.2222 80.1924 33.5257 80.8889 32.6667 80.8889C31.8076 80.8889 31.1111 80.1924 31.1111 79.3333C31.1111 78.4743 31.8076 77.7778 32.6667 77.7778C33.5257 77.7778 34.2222 78.4743 34.2222 79.3333ZM48.2222 80.8889C49.0813 80.8889 49.7778 80.1924 49.7778 79.3333C49.7778 78.4743 49.0813 77.7778 48.2222 77.7778C47.3632 77.7778 46.6667 78.4743 46.6667 79.3333C46.6667 80.1924 47.3632 80.8889 48.2222 80.8889ZM65.3333 79.3333C65.3333 80.1924 64.6368 80.8889 63.7778 80.8889C62.9187 80.8889 62.2222 80.1924 62.2222 79.3333C62.2222 78.4743 62.9187 77.7778 63.7778 77.7778C64.6368 77.7778 65.3333 78.4743 65.3333 79.3333ZM79.3333 80.8889C80.1924 80.8889 80.8889 80.1924 80.8889 79.3333C80.8889 78.4743 80.1924 77.7778 79.3333 77.7778C78.4743 77.7778 77.7778 78.4743 77.7778 79.3333C77.7778 80.1924 78.4743 80.8889 79.3333 80.8889ZM96.4444 79.3333C96.4444 80.1924 95.7479 80.8889 94.8889 80.8889C94.0298 80.8889 93.3333 80.1924 93.3333 79.3333C93.3333 78.4743 94.0298 77.7778 94.8889 77.7778C95.7479 77.7778 96.4444 78.4743 96.4444 79.3333ZM110.444 80.8889C111.303 80.8889 112 80.1924 112 79.3333C112 78.4743 111.303 77.7778 110.444 77.7778C109.585 77.7778 108.889 78.4743 108.889 79.3333C108.889 80.1924 109.585 80.8889 110.444 80.8889ZM3.11111 94.8889C3.11111 95.7479 2.41461 96.4444 1.55556 96.4444C0.6965 96.4444 0 95.7479 0 94.8889C0 94.0298 0.6965 93.3333 1.55556 93.3333C2.41461 93.3333 3.11111 94.0298 3.11111 94.8889ZM17.1111 96.4444C17.9702 96.4444 18.6667 95.7479 18.6667 94.8889C18.6667 94.0298 17.9702 93.3333 17.1111 93.3333C16.2521 93.3333 15.5556 94.0298 15.5556 94.8889C15.5556 95.7479 16.2521 96.4444 17.1111 96.4444ZM34.2222 94.8889C34.2222 95.7479 33.5257 96.4444 32.6667 96.4444C31.8076 96.4444 31.1111 95.7479 31.1111 94.8889C31.1111 94.0298 31.8076 93.3333 32.6667 93.3333C33.5257 93.3333 34.2222 94.0298 34.2222 94.8889ZM48.2222 96.4444C49.0813 96.4444 49.7778 95.7479 49.7778 94.8889C49.7778 94.0298 49.0813 93.3333 48.2222 93.3333C47.3632 93.3333 46.6667 94.0298 46.6667 94.8889C46.6667 95.7479 47.3632 96.4444 48.2222 96.4444ZM65.3333 94.8889C65.3333 95.7479 64.6368 96.4444 63.7778 96.4444C62.9187 96.4444 62.2222 95.7479 62.2222 94.8889C62.2222 94.0298 62.9187 93.3333 63.7778 93.3333C64.6368 93.3333 65.3333 94.0298 65.3333 94.8889ZM79.3333 96.4444C80.1924 96.4444 80.8889 95.7479 80.8889 94.8889C80.8889 94.0298 80.1924 93.3333 79.3333 93.3333C78.4743 93.3333 77.7778 94.0298 77.7778 94.8889C77.7778 95.7479 78.4743 96.4444 79.3333 96.4444ZM96.4444 94.8889C96.4444 95.7479 95.7479 96.4444 94.8889 96.4444C94.0298 96.4444 93.3333 95.7479 93.3333 94.8889C93.3333 94.0298 94.0298 93.3333 94.8889 93.3333C95.7479 93.3333 96.4444 94.0298 96.4444 94.8889ZM110.444 96.4444C111.303 96.4444 112 95.7479 112 94.8889C112 94.0298 111.303 93.3333 110.444 93.3333C109.585 93.3333 108.889 94.0298 108.889 94.8889C108.889 95.7479 109.585 96.4444 110.444 96.4444ZM3.11111 110.444C3.11111 111.303 2.41461 112 1.55556 112C0.6965 112 0 111.303 0 110.444C0 109.585 0.6965 108.889 1.55556 108.889C2.41461 108.889 3.11111 109.585 3.11111 110.444ZM17.1111 112C17.9702 112 18.6667 111.303 18.6667 110.444C18.6667 109.585 17.9702 108.889 17.1111 108.889C16.2521 108.889 15.5556 109.585 15.5556 110.444C15.5556 111.303 16.2521 112 17.1111 112ZM34.2222 110.444C34.2222 111.303 33.5257 112 32.6667 112C31.8076 112 31.1111 111.303 31.1111 110.444C31.1111 109.585 31.8076 108.889 32.6667 108.889C33.5257 108.889 34.2222 109.585 34.2222 110.444ZM48.2222 112C49.0813 112 49.7778 111.303 49.7778 110.444C49.7778 109.585 49.0813 108.889 48.2222 108.889C47.3632 108.889 46.6667 109.585 46.6667 110.444C46.6667 111.303 47.3632 112 48.2222 112ZM65.3333 110.444C65.3333 111.303 64.6368 112 63.7778 112C62.9187 112 62.2222 111.303 62.2222 110.444C62.2222 109.585 62.9187 108.889 63.7778 108.889C64.6368 108.889 65.3333 109.585 65.3333 110.444ZM79.3333 112C80.1924 112 80.8889 111.303 80.8889 110.444C80.8889 109.585 80.1924 108.889 79.3333 108.889C78.4743 108.889 77.7778 109.585 77.7778 110.444C77.7778 111.303 78.4743 112 79.3333 112ZM96.4444 110.444C96.4444 111.303 95.7479 112 94.8889 112C94.0298 112 93.3333 111.303 93.3333 110.444C93.3333 109.585 94.0298 108.889 94.8889 108.889C95.7479 108.889 96.4444 109.585 96.4444 110.444ZM110.444 112C111.303 112 112 111.303 112 110.444C112 109.585 111.303 108.889 110.444 108.889C109.585 108.889 108.889 109.585 108.889 110.444C108.889 111.303 109.585 112 110.444 112Z" fill="#F54C1E"/>
<mask id="mask0_1_155" style="mask-type:luminance" maskUnits="userSpaceOnUse" x="0" y="0" width="112" height="112">
<path fill-rule="evenodd" clip-rule="evenodd" d="M1.55556 3.11111C2.41461 3.11111 3.11111 2.41461 3.11111 1.55556C3.11111 0.6965 2.41461 0 1.55556 0C0.6965 0 0 0.6965 0 1.55556C0 2.41461 0.6965 3.11111 1.55556 3.11111ZM17.1111 3.11111C17.9702 3.11111 18.6667 2.41461 18.6667 1.55556C18.6667 0.6965 17.9702 0 17.1111 0C16.2521 0 15.5556 0.6965 15.5556 1.55556C15.5556 2.41461 16.2521 3.11111 17.1111 3.11111ZM34.2222 1.55556C34.2222 2.41461 33.5257 3.11111 32.6667 3.11111C31.8076 3.11111 31.1111 2.41461 31.1111 1.55556C31.1111 0.6965 31.8076 0 32.6667 0C33.5257 0 34.2222 0.6965 34.2222 1.55556ZM48.2222 3.11111C49.0813 3.11111 49.7778 2.41461 49.7778 1.55556C49.7778 0.6965 49.0813 0 48.2222 0C47.3632 0 46.6667 0.6965 46.6667 1.55556C46.6667 2.41461 47.3632 3.11111 48.2222 3.11111ZM65.3333 1.55556C65.3333 2.41461 64.6368 3.11111 63.7778 3.11111C62.9187 3.11111 62.2222 2.41461 62.2222 1.55556C62.2222 0.6965 62.9187 0 63.7778 0C64.6368 0 65.3333 0.6965 65.3333 1.55556ZM79.3333 3.11111C80.1924 3.11111 80.8889 2.41461 80.8889 1.55556C80.8889 0.6965 80.1924 0 79.3333 0C78.4743 0 77.7778 0.6965 77.7778 1.55556C77.7778 2.41461 78.4743 3.11111 79.3333 3.11111ZM96.4444 1.55556C96.4444 2.41461 95.7479 3.11111 94.8889 3.11111C94.0298 3.11111 93.3333 2.41461 93.3333 1.55556C93.3333 0.6965 94.0298 0 94.8889 0C95.7479 0 96.4444 0.6965 96.4444 1.55556ZM110.444 3.11111C111.303 3.11111 112 2.41461 112 1.55556C112 0.6965 111.303 0 110.444 0C109.585 0 108.889 0.6965 108.889 1.55556C108.889 2.41461 109.585 3.11111 110.444 3.11111ZM3.11111 17.1111C3.11111 17.9702 2.41461 18.6667 1.55556 18.6667C0.6965 18.6667 0 17.9702 0 17.1111C0 16.2521 0.6965 15.5556 1.55556 15.5556C2.41461 15.5556 3.11111 16.2521 3.11111 17.1111ZM17.1111 18.6667C17.9702 18.6667 18.6667 17.9702 18.6667 17.1111C18.6667 16.2521 17.9702 15.5556 17.1111 15.5556C16.2521 15.5556 15.5556 16.2521 15.5556 17.1111C15.5556 17.9702 16.2521 18.6667 17.1111 18.6667ZM34.2222 17.1111C34.2222 17.9702 33.5257 18.6667 32.6667 18.6667C31.8076 18.6667 31.1111 17.9702 31.1111 17.1111C31.1111 16.2521 31.8076 15.5556 32.6667 15.5556C33.5257 15.5556 34.2222 16.2521 34.2222 17.1111ZM48.2222 18.6667C49.0813 18.6667 49.7778 17.9702 49.7778 17.1111C49.7778 16.2521 49.0813 15.5556 48.2222 15.5556C47.3632 15.5556 46.6667 16.2521 46.6667 17.1111C46.6667 17.9702 47.3632 18.6667 48.2222 18.6667ZM65.3333 17.1111C65.3333 17.9702 64.6368 18.6667 63.7778 18.6667C62.9187 18.6667 62.2222 17.9702 62.2222 17.1111C62.2222 16.2521 62.9187 15.5556 63.7778 15.5556C64.6368 15.5556 65.3333 16.2521 65.3333 17.1111ZM79.3333 18.6667C80.1924 18.6667 80.8889 17.9702 80.8889 17.1111C80.8889 16.2521 80.1924 15.5556 79.3333 15.5556C78.4743 15.5556 77.7778 16.2521 77.7778 17.1111C77.7778 17.9702 78.4743 18.6667 79.3333 18.6667ZM96.4444 17.1111C96.4444 17.9702 95.7479 18.6667 94.8889 18.6667C94.0298 18.6667 93.3333 17.9702 93.3333 17.1111C93.3333 16.2521 94.0298 15.5556 94.8889 15.5556C95.7479 15.5556 96.4444 16.2521 96.4444 17.1111ZM110.444 18.6667C111.303 18.6667 112 17.9702 112 17.1111C112 16.2521 111.303 15.5556 110.444 15.5556C109.585 15.5556 108.889 16.2521 108.889 17.1111C108.889 17.9702 109.585 18.6667 110.444 18.6667ZM3.11111 32.6667C3.11111 33.5257 2.41461 34.2222 1.55556 34.2222C0.6965 34.2222 0 33.5257 0 32.6667C0 31.8076 0.6965 31.1111 1.55556 31.1111C2.41461 31.1111 3.11111 31.8076 3.11111 32.6667ZM17.1111 34.2222C17.9702 34.2222 18.6667 33.5257 18.6667 32.6667C18.6667 31.8076 17.9702 31.1111 17.1111 31.1111C16.2521 31.1111 15.5556 31.8076 15.5556 32.6667C15.5556 33.5257 16.2521 34.2222 17.1111 34.2222ZM34.2222 32.6667C34.2222 33.5257 33.5257 34.2222 32.6667 34.2222C31.8076 34.2222 31.1111 33.5257 31.1111 32.6667C31.1111 31.8076 31.8076 31.1111 32.6667 31.1111C33.5257 31.1111 34.2222 31.8076 34.2222 32.6667ZM48.2222 34.2222C49.0813 34.2222 49.7778 33.5257 49.7778 32.6667C49.7778 31.8076 49.0813 31.1111 48.2222 31.1111C47.3632 31.1111 46.6667 31.8076 46.6667 32.6667C46.6667 33.5257 47.3632 34.2222 48.2222 34.2222ZM65.3333 32.6667C65.3333 33.5257 64.6368 34.2222 63.7778 34.2222C62.9187 34.2222 62.2222 33.5257 62.2222 32.6667C62.2222 31.8076 62.9187 31.1111 63.7778 31.1111C64.6368 31.1111 65.3333 31.8076 65.3333 32.6667ZM79.3333 34.2222C80.1924 34.2222 80.8889 33.5257 80.8889 32.6667C80.8889 31.8076 80.1924 31.1111 79.3333 31.1111C78.4743 31.1111 77.7778 31.8076 77.7778 32.6667C77.7778 33.5257 78.4743 34.2222 79.3333 34.2222ZM96.4444 32.6667C96.4444 33.5257 95.7479 34.2222 94.8889 34.2222C94.0298 34.2222 93.3333 33.5257 93.3333 32.6667C93.3333 31.8076 94.0298 31.1111 94.8889 31.1111C95.7479 31.1111 96.4444 31.8076 96.4444 32.6667ZM110.444 34.2222C111.303 34.2222 112 33.5257 112 32.6667C112 31.8076 111.303 31.1111 110.444 31.1111C109.585 31.1111 108.889 31.8076 108.889 32.6667C108.889 33.5257 109.585 34.2222 110.444 34.2222ZM3.11111 48.2222C3.11111 49.0813 2.41461 49.7778 1.55556 49.7778C0.6965 49.7778 0 49.0813 0 48.2222C0 47.3632 0.6965 46.6667 1.55556 46.6667C2.41461 46.6667 3.11111 47.3632 3.11111 48.2222ZM17.1111 49.7778C17.9702 49.7778 18.6667 49.0813 18.6667 48.2222C18.6667 47.3632 17.9702 46.6667 17.1111 46.6667C16.2521 46.6667 15.5556 47.3632 15.5556 48.2222C15.5556 49.0813 16.2521 49.7778 17.1111 49.7778ZM34.2222 48.2222C34.2222 49.0813 33.5257 49.7778 32.6667 49.7778C31.8076 49.7778 31.1111 49.0813 31.1111 48.2222C31.1111 47.3632 31.8076 46.6667 32.6667 46.6667C33.5257 46.6667 34.2222 47.3632 34.2222 48.2222ZM48.2222 49.7778C49.0813 49.7778 49.7778 49.0813 49.7778 48.2222C49.7778 47.3632 49.0813 46.6667 48.2222 46.6667C47.3632 46.6667 46.6667 47.3632 46.6667 48.2222C46.6667 49.0813 47.3632 49.7778 48.2222 49.7778ZM65.3333 48.2222C65.3333 49.0813 64.6368 49.7778 63.7778 49.7778C62.9187 49.7778 62.2222 49.0813 62.2222 48.2222C62.2222 47.3632 62.9187 46.6667 63.7778 46.6667C64.6368 46.6667 65.3333 47.3632 65.3333 48.2222ZM79.3333 49.7778C80.1924 49.7778 80.8889 49.0813 80.8889 48.2222C80.8889 47.3632 80.1924 46.6667 79.3333 46.6667C78.4743 46.6667 77.7778 47.3632 77.7778 48.2222C77.7778 49.0813 78.4743 49.7778 79.3333 49.7778ZM96.4444 48.2222C96.4444 49.0813 95.7479 49.7778 94.8889 49.7778C94.0298 49.7778 93.3333 49.0813 93.3333 48.2222C93.3333 47.3632 94.0298 46.6667 94.8889 46.6667C95.7479 46.6667 96.4444 47.3632 96.4444 48.2222ZM110.444 49.7778C111.303 49.7778 112 49.0813 112 48.2222C112 47.3632 111.303 46.6667 110.444 46.6667C109.585 46.6667 108.889 47.3632 108.889 48.2222C108.889 49.0813 109.585 49.7778 110.444 49.7778ZM3.11111 63.7778C3.11111 64.6368 2.41461 65.3333 1.55556 65.3333C0.6965 65.3333 0 64.6368 0 63.7778C0 62.9187 0.6965 62.2222 1.55556 62.2222C2.41461 62.2222 3.11111 62.9187 3.11111 63.7778ZM17.1111 65.3333C17.9702 65.3333 18.6667 64.6368 18.6667 63.7778C18.6667 62.9187 17.9702 62.2222 17.1111 62.2222C16.2521 62.2222 15.5556 62.9187 15.5556 63.7778C15.5556 64.6368 16.2521 65.3333 17.1111 65.3333ZM34.2222 63.7778C34.2222 64.6368 33.5257 65.3333 32.6667 65.3333C31.8076 65.3333 31.1111 64.6368 31.1111 63.7778C31.1111 62.9187 31.8076 62.2222 32.6667 62.2222C33.5257 62.2222 34.2222 62.9187 34.2222 63.7778ZM48.2222 65.3333C49.0813 65.3333 49.7778 64.6368 49.7778 63.7778C49.7778 62.9187 49.0813 62.2222 48.2222 62.2222C47.3632 62.2222 46.6667 62.9187 46.6667 63.7778C46.6667 64.6368 47.3632 65.3333 48.2222 65.3333ZM65.3333 63.7778C65.3333 64.6368 64.6368 65.3333 63.7778 65.3333C62.9187 65.3333 62.2222 64.6368 62.2222 63.7778C62.2222 62.9187 62.9187 62.2222 63.7778 62.2222C64.6368 62.2222 65.3333 62.9187 65.3333 63.7778ZM79.3333 65.3333C80.1924 65.3333 80.8889 64.6368 80.8889 63.7778C80.8889 62.9187 80.1924 62.2222 79.3333 62.2222C78.4743 62.2222 77.7778 62.9187 77.7778 63.7778C77.7778 64.6368 78.4743 65.3333 79.3333 65.3333ZM96.4444 63.7778C96.4444 64.6368 95.7479 65.3333 94.8889 65.3333C94.0298 65.3333 93.3333 64.6368 93.3333 63.7778C93.3333 62.9187 94.0298 62.2222 94.8889 62.2222C95.7479 62.2222 96.4444 62.9187 96.4444 63.7778ZM110.444 65.3333C111.303 65.3333 112 64.6368 112 63.7778C112 62.9187 111.303 62.2222 110.444 62.2222C109.585 62.2222 108.889 62.9187 108.889 63.7778C108.889 64.6368 109.585 65.3333 110.444 65.3333ZM3.11111 79.3333C3.11111 80.1924 2.41461 80.8889 1.55556 80.8889C0.6965 80.8889 0 80.1924 0 79.3333C0 78.4743 0.6965 77.7778 1.55556 77.7778C2.41461 77.7778 3.11111 78.4743 3.11111 79.3333ZM17.1111 80.8889C17.9702 80.8889 18.6667 80.1924 18.6667 79.3333C18.6667 78.4743 17.9702 77.7778 17.1111 77.7778C16.2521 77.7778 15.5556 78.4743 15.5556 79.3333C15.5556 80.1924 16.2521 80.8889 17.1111 80.8889ZM34.2222 79.3333C34.2222 80.1924 33.5257 80.8889 32.6667 80.8889C31.8076 80.8889 31.1111 80.1924 31.1111 79.3333C31.1111 78.4743 31.8076 77.7778 32.6667 77.7778C33.5257 77.7778 34.2222 78.4743 34.2222 79.3333ZM48.2222 80.8889C49.0813 80.8889 49.7778 80.1924 49.7778 79.3333C49.7778 78.4743 49.0813 77.7778 48.2222 77.7778C47.3632 77.7778 46.6667 78.4743 46.6667 79.3333C46.6667 80.1924 47.3632 80.8889 48.2222 80.8889ZM65.3333 79.3333C65.3333 80.1924 64.6368 80.8889 63.7778 80.8889C62.9187 80.8889 62.2222 80.1924 62.2222 79.3333C62.2222 78.4743 62.9187 77.7778 63.7778 77.7778C64.6368 77.7778 65.3333 78.4743 65.3333 79.3333ZM79.3333 80.8889C80.1924 80.8889 80.8889 80.1924 80.8889 79.3333C80.8889 78.4743 80.1924 77.7778 79.3333 77.7778C78.4743 77.7778 77.7778 78.4743 77.7778 79.3333C77.7778 80.1924 78.4743 80.8889 79.3333 80.8889ZM96.4444 79.3333C96.4444 80.1924 95.7479 80.8889 94.8889 80.8889C94.0298 80.8889 93.3333 80.1924 93.3333 79.3333C93.3333 78.4743 94.0298 77.7778 94.8889 77.7778C95.7479 77.7778 96.4444 78.4743 96.4444 79.3333ZM110.444 80.8889C111.303 80.8889 112 80.1924 112 79.3333C112 78.4743 111.303 77.7778 110.444 77.7778C109.585 77.7778 108.889 78.4743 108.889 79.3333C108.889 80.1924 109.585 80.8889 110.444 80.8889ZM3.11111 94.8889C3.11111 95.7479 2.41461 96.4444 1.55556 96.4444C0.6965 96.4444 0 95.7479 0 94.8889C0 94.0298 0.6965 93.3333 1.55556 93.3333C2.41461 93.3333 3.11111 94.0298 3.11111 94.8889ZM17.1111 96.4444C17.9702 96.4444 18.6667 95.7479 18.6667 94.8889C18.6667 94.0298 17.9702 93.3333 17.1111 93.3333C16.2521 93.3333 15.5556 94.0298 15.5556 94.8889C15.5556 95.7479 16.2521 96.4444 17.1111 96.4444ZM34.2222 94.8889C34.2222 95.7479 33.5257 96.4444 32.6667 96.4444C31.8076 96.4444 31.1111 95.7479 31.1111 94.8889C31.1111 94.0298 31.8076 93.3333 32.6667 93.3333C33.5257 93.3333 34.2222 94.0298 34.2222 94.8889ZM48.2222 96.4444C49.0813 96.4444 49.7778 95.7479 49.7778 94.8889C49.7778 94.0298 49.0813 93.3333 48.2222 93.3333C47.3632 93.3333 46.6667 94.0298 46.6667 94.8889C46.6667 95.7479 47.3632 96.4444 48.2222 96.4444ZM65.3333 94.8889C65.3333 95.7479 64.6368 96.4444 63.7778 96.4444C62.9187 96.4444 62.2222 95.7479 62.2222 94.8889C62.2222 94.0298 62.9187 93.3333 63.7778 93.3333C64.6368 93.3333 65.3333 94.0298 65.3333 94.8889ZM79.3333 96.4444C80.1924 96.4444 80.8889 95.7479 80.8889 94.8889C80.8889 94.0298 80.1924 93.3333 79.3333 93.3333C78.4743 93.3333 77.7778 94.0298 77.7778 94.8889C77.7778 95.7479 78.4743 96.4444 79.3333 96.4444ZM96.4444 94.8889C96.4444 95.7479 95.7479 96.4444 94.8889 96.4444C94.0298 96.4444 93.3333 95.7479 93.3333 94.8889C93.3333 94.0298 94.0298 93.3333 94.8889 93.3333C95.7479 93.3333 96.4444 94.0298 96.4444 94.8889ZM110.444 96.4444C111.303 96.4444 112 95.7479 112 94.8889C112 94.0298 111.303 93.3333 110.444 93.3333C109.585 93.3333 108.889 94.0298 108.889 94.8889C108.889 95.7479 109.585 96.4444 110.444 96.4444ZM3.11111 110.444C3.11111 111.303 2.41461 112 1.55556 112C0.6965 112 0 111.303 0 110.444C0 109.585 0.6965 108.889 1.55556 108.889C2.41461 108.889 3.11111 109.585 3.11111 110.444ZM17.1111 112C17.9702 112 18.6667 111.303 18.6667 110.444C18.6667 109.585 17.9702 108.889 17.1111 108.889C16.2521 108.889 15.5556 109.585 15.5556 110.444C15.5556 111.303 16.2521 112 17.1111 112ZM34.2222 110.444C34.2222 111.303 33.5257 112 32.6667 112C31.8076 112 31.1111 111.303 31.1111 110.444C31.1111 109.585 31.8076 108.889 32.6667 108.889C33.5257 108.889 34.2222 109.585 34.2222 110.444ZM48.2222 112C49.0813 112 49.7778 111.303 49.7778 110.444C49.7778 109.585 49.0813 108.889 48.2222 108.889C47.3632 108.889 46.6667 109.585 46.6667 110.444C46.6667 111.303 47.3632 112 48.2222 112ZM65.3333 110.444C65.3333 111.303 64.6368 112 63.7778 112C62.9187 112 62.2222 111.303 62.2222 110.444C62.2222 109.585 62.9187 108.889 63.7778 108.889C64.6368 108.889 65.3333 109.585 65.3333 110.444ZM79.3333 112C80.1924 112 80.8889 111.303 80.8889 110.444C80.8889 109.585 80.1924 108.889 79.3333 108.889C78.4743 108.889 77.7778 109.585 77.7778 110.444C77.7778 111.303 78.4743 112 79.3333 112ZM96.4444 110.444C96.4444 111.303 95.7479 112 94.8889 112C94.0298 112 93.3333 111.303 93.3333 110.444C93.3333 109.585 94.0298 108.889 94.8889 108.889C95.7479 108.889 96.4444 109.585 96.4444 110.444ZM110.444 112C111.303 112 112 111.303 112 110.444C112 109.585 111.303 108.889 110.444 108.889C109.585 108.889 108.889 109.585 108.889 110.444C108.889 111.303 109.585 112 110.444 112Z" fill="white"/>
</mask>
<g mask="url(#mask0_1_155)">
<rect width="112" height="112" fill="#F54C1E"/>
</g>
</svg>
